{
  "accessors": [
    {
      "bufferView": 2,
      "componentType": 5126,
      "count": 9002,
      "max": [
        113.90940093994141,
        98.553596496582031,
        98.553077697753906
      ],
      "min": [
        -99.744720458984375,
        -98.553596496582031,
        -98.553077697753906
      ],
      "type": "VEC3"
    },
    {
      "bufferView": 2,
      "byteOffset": 108024,
      "componentType": 5126,
      "count": 9002,
      "max": [
        0.99982374906539917,
        1,
        1
      ],
      "min": [
        -1,
        -1,
        -1
      ],
      "type": "VEC3"
    },
    {
      "bufferView": 3,
      "componentType": 5126,
      "count": 9002,
      "max": [
        0.99995964765548706,
        0.99965435266494751,
        0.99991136789321899,
        1
      ],
      "min": [
        -0.99996203184127808,
        -0.74241161346435547,
        -0.99919015169143677,
        1
      ],
      "type": "VEC4"
    },
    {
      "bufferView": 3,
      "byteOffset": 144032,
      "componentType": 5126,
      "count": 9002,
      "max": [
        1,
        1,
        1,
        1
      ],
      "min": [
        0.99607843160629272,
        0.99607843160629272,
        0.99607843160629272,
        1
      ],
      "type": "VEC4"
    },
    {
      "bufferView": 1,
      "componentType": 5126,
      "count": 9002,
      "max": [
        0.99804681539535522,
        0.99791473150253296
      ],
      "min": [
        0.001953125,
        0.001953125
      ],
      "type": "VEC2"
    },
    {
      "bufferView": 0,
      "componentType": 5125,
      "count": 53280,
      "max": [
        9001
      ],
      "min": [
        0
      ],
      "type": "SCALAR"
    },
    {
      "bufferView": 2,
      "byteOffset": 216048,
      "componentType": 5126,
      "count": 9002,
      "max": [
        112.78462982177734,
        97.505630493164062,
        97.505111694335938
      ],
      "min": [
        -98.597579956054688,
        -97.505630493164062,
        -97.505111694335938
      ],
      "type": "VEC3"
    },
    {
      "bufferView": 2,
      "byteOffset": 324072,
      "componentType": 5126,
      "count": 9002,
      "max": [
        0.99982380867004395,
        1,
        1
      ],
      "min": [
        -1,
        -1,
        -1
      ],
      "type": "VEC3"
    },
    {
      "bufferView": 3,
      "byteOffset": 288064,
      "componentType": 5126,
      "count": 9002,
      "max": [
        0.99995970726013184,
        0.99965417385101318,
        0.99991136789321899,
        1
      ],
      "min": [
        -0.99996209144592285,
        -0.74241364002227783,
        -0.99919074773788452,
        1
      ],
      "type": "VEC4"
    },
    {
      "bufferView": 3,
      "byteOffset": 432096,
      "componentType": 5126,
      "count": 9002,
      "max": [
        1,
        1,
        1,
        1
      ],
      "min": [
        0.99607843160629272,
        0.99607843160629272,
        0.99607843160629272,
        1
      ],
      "type": "VEC4"
    },
    {
      "bufferView": 1,
      "byteOffset": 72016,
      "componentType": 5126,
      "count": 9002,
      "max": [
        0.99804681539535522,
        0.99791473150253296
      ],
      "min": [
        0.001953125,
        0.001953125
      ],
      "type": "VEC2"
    },
    {
      "bufferView": 0,
      "byteOffset": 213120,
      "componentType": 5125,
      "count": 53280,
      "max": [
        9001
      ],
      "min": [
        0
      ],
      "type": "SCALAR"
    }
  ],
  "asset": {
    "extras": {
      "author": "OSCAR CREATIVO (https://sketchfab.com/oscar_creativo)",
      "license": "CC-BY-4.0 (http://creativecommons.org/licenses/by/4.0/)",
      "source": "https://sketchfab.com/3d-models/eye-free-model-3d-by-oscar-creativo-5d466ea41c874fc5b376c92a313a9bb3",
      "title": "EYE FREE MODEL 3D BY Oscar creativo"
    },
    "generator": "Sketchfab-9.94.0",
    "version": "2.0"
  },
  "bufferViews": [
    {
      "buffer": 0,
      "byteLength": 426240,
      "byteOffset": 0,
      "name": "floatBufferViews",
      "target": 34963
    },
    {
      "buffer": 0,
      "byteLength": 144032,
      "byteOffset": 426240,
      "byteStride": 8,
      "name": "floatBufferViews",
      "target": 34962
    },
    {
      "buffer": 0,
      "byteLength": 432096,
      "byteOffset": 570272,
      "byteStride": 12,
      "name": "floatBufferViews",
      "target": 34962
    },
    {
      "buffer": 0,
      "byteLength": 576128,
      "byteOffset": 1002368,
      "byteStride": 16,
      "name": "floatBufferViews",
      "target": 34962
    }
  ],
  "buffers": [
    {
      "byteLength": 1578496,
      "uri": "scene.bin"
    }
  ],
  "images": [
    {
      "uri": "textures/CORNEA_normal.png"
    },
    {
      "uri": "textures/IRIS_FINAL_baseColor.jpeg"
    },
    {
      "uri": "textures/IRIS_FINAL_metallicRoughness.png"
    },
    {
      "uri": "textures/IRIS_FINAL_normal.jpeg"
    }
  ],
  "materials": [
    {
      "alphaMode": "BLEND",
      "doubleSided": true,
      "emissiveFactor": [
        0,
        0,
        0
      ],
      "name": "CORNEA",
      "normalTexture": {
        "index": 0,
        "scale": 1,
        "texCoord": 0
      },
      "pbrMetallicRoughness": {
        "baseColorFactor": [
          0,
          0,
          0,
          0
        ],
        "metallicFactor": 0,
        "roughnessFactor": 0
      }
    },
    {
      "doubleSided": true,
      "emissiveFactor": [
        0,
        0,
        0
      ],
      "name": "IRIS_FINAL",
      "normalTexture": {
        "index": 3,
        "scale": 0.0077902218655187304,
        "texCoord": 0
      },
      "pbrMetallicRoughness": {
        "baseColorFactor": [
          1,
          1,
          1,
          1
        ],
        "baseColorTexture": {
          "index": 1,
          "texCoord": 0
        },
        "metallicFactor": 0,
        "metallicRoughnessTexture": {
          "index": 2,
          "texCoord": 0
        },
        "roughnessFactor": 0.60972736503535618
      }
    }
  ],
  "meshes": [
    {
      "name": "CORNEA__CORNEA__0",
      "primitives": [
        {
          "attributes": {
            "COLOR_0": 3,
            "NORMAL": 1,
            "POSITION": 0,
            "TANGENT": 2,
            "TEXCOORD_0": 4
          },
          "indices": 5,
          "material": 0,
          "mode": 4
        }
      ]
    },
    {
      "name": "IRIS_FINAL_IRIS_FINAL_0",
      "primitives": [
        {
          "attributes": {
            "COLOR_0": 9,
            "NORMAL": 7,
            "POSITION": 6,
            "TANGENT": 8,
            "TEXCOORD_0": 10
          },
          "indices": 11,
          "material": 1,
          "mode": 4
        }
      ]
    }
  ],
  "nodes": [
    {
      "children": [
        1
      ],
      "name": "RootNode (gltf orientation matrix)",
      "rotation": [
        -0.70710678118654746,
        -0,
        -0,
        0.70710678118654757
      ]
    },
    {
      "children": [
        2
      ],
      "name": "RootNode (model correction matrix)"
    },
    {
      "children": [
        3
      ],
      "matrix": [
        1,
        0,
        0,
        0,
        0,
        0,
        1,
        0,
        0,
        -1,
        0,
        0,
        0,
        0,
        0,
        1
      ],
      "name": "22ec5c9939344a4f937fbad873d26bed.fbx"
    },
    {
      "children": [
        4,
        6
      ],
      "name": "RootNode"
    },
    {
      "children": [
        5
      ],
      "name": "CORNEA_"
    },
    {
      "mesh": 0,
      "name": "CORNEA__CORNEA__0"
    },
    {
      "children": [
        7
      ],
      "name": "IRIS_FINAL"
    },
    {
      "mesh": 1,
      "name": "IRIS_FINAL_IRIS_FINAL_0"
    }
  ],
  "samplers": [
    {
      "magFilter": 9729,
      "minFilter": 9987,
      "wrapS": 10497,
      "wrapT": 10497
    }
  ],
  "scene": 0,
  "scenes": [
    {
      "name": "OSG_Scene",
      "nodes": [
        0
      ]
    }
  ],
  "textures": [
    {
      "sampler": 0,
      "source": 0
    },
    {
      "sampler": 0,
      "source": 1
    },
    {
      "sampler": 0,
      "source": 2
    },
    {
      "sampler": 0,
      "source": 3
    }
  ]
}

