{
  "accessors": [
    {
      "bufferView": 2,
      "componentType": 5126,
      "count": 12494,
      "max": [
        -0.5773980021476746,
        4.716207981109619,
        -0.7167230248451233
      ],
      "min": [
        -3.384984016418457,
        -4.716207981109619,
        -3.3649890422821045
      ],
      "type": "VEC3"
    },
    {
      "bufferView": 2,
      "byteOffset": 149928,
      "componentType": 5126,
      "count": 12494,
      "max": [
        0.9999634623527527,
        1.0,
        0.999963104724884
      ],
      "min": [
        -0.9999635219573975,
        -1.0,
        -0.999963104724884
      ],
      "type": "VEC3"
    },
    {
      "bufferView": 3,
      "componentType": 5126,
      "count": 12494,
      "max": [
        0.999919593334198,
        1.0,
        0.9999047517776489,
        1.0
      ],
      "min": [
        -0.9999451041221619,
        -1.0,
        -0.9999912977218628,
        -1.0
      ],
      "type": "VEC4"
    },
    {
      "bufferView": 1,
      "componentType": 5126,
      "count": 12494,
      "max": [
        0.9877989888191223,
        0.9905490279197693
      ],
      "min": [
        0.009258000180125237,
        0.0014570000348612666
      ],
      "type": "VEC2"
    },
    {
      "bufferView": 0,
      "componentType": 5125,
      "count": 30684,
      "type": "SCALAR"
    },
    {
      "bufferView": 2,
      "byteOffset": 299856,
      "componentType": 5126,
      "count": 65064,
      "max": [
        -1.7241029739379883,
        3.4004979133605957,
        -0.4345729947090149
      ],
      "min": [
        -3.727449893951416,
        -3.4004979133605957,
        -1.9101040363311768
      ],
      "type": "VEC3"
    },
    {
      "bufferView": 2,
      "byteOffset": 1080624,
      "componentType": 5126,
      "count": 65064,
      "max": [
        1.0,
        1.0,
        1.0
      ],
      "min": [
        -1.0,
        -1.0,
        -1.0
      ],
      "type": "VEC3"
    },
    {
      "bufferView": 3,
      "byteOffset": 199904,
      "componentType": 5126,
      "count": 65064,
      "max": [
        1.0,
        1.0,
        1.0,
        1.0
      ],
      "min": [
        -1.0,
        -1.0,
        -1.0,
        -1.0
      ],
      "type": "VEC4"
    },
    {
      "bufferView": 1,
      "byteOffset": 99952,
      "componentType": 5126,
      "count": 65064,
      "max": [
        0.9947699904441833,
        0.998337984085083
      ],
      "min": [
        0.4009990096092224,
        0.009475000202655792
      ],
      "type": "VEC2"
    },
    {
      "bufferView": 0,
      "byteOffset": 122736,
      "componentType": 5125,
      "count": 164784,
      "type": "SCALAR"
    },
    {
      "bufferView": 2,
      "byteOffset": 1861392,
      "componentType": 5126,
      "count": 12485,
      "max": [
        -2.5271990299224854,
        4.716207981109619,
        -0.7695090174674988
      ],
      "min": [
        -5.35668420791626,
        -4.716207981109619,
        -3.3959579467773438
      ],
      "type": "VEC3"
    },
    {
      "bufferView": 2,
      "byteOffset": 2011212,
      "componentType": 5126,
      "count": 12485,
      "max": [
        1.0,
        1.0,
        1.0
      ],
      "min": [
        -1.0,
        -1.0,
        -1.0
      ],
      "type": "VEC3"
    },
    {
      "bufferView": 3,
      "byteOffset": 1240928,
      "componentType": 5126,
      "count": 12485,
      "max": [
        1.0,
        1.0,
        1.0,
        1.0
      ],
      "min": [
        -1.0,
        -1.0,
        -1.0,
        -1.0
      ],
      "type": "VEC4"
    },
    {
      "bufferView": 1,
      "byteOffset": 620464,
      "componentType": 5126,
      "count": 12485,
      "max": [
        0.9877989888191223,
        0.9905490279197693
      ],
      "min": [
        0.009258000180125237,
        0.0014570000348612666
      ],
      "type": "VEC2"
    },
    {
      "bufferView": 0,
      "byteOffset": 781872,
      "componentType": 5125,
      "count": 30657,
      "type": "SCALAR"
    },
    {
      "bufferView": 2,
      "byteOffset": 2161032,
      "componentType": 5126,
      "count": 1080,
      "max": [
        6.196836948394775,
        1.1250859498977661,
        -0.3817470073699951
      ],
      "min": [
        4.728178977966309,
        -1.125087022781372,
        -1.4324619770050049
      ],
      "type": "VEC3"
    },
    {
      "bufferView": 2,
      "byteOffset": 2173992,
      "componentType": 5126,
      "count": 1080,
      "max": [
        1.0,
        1.0,
        1.0
      ],
      "min": [
        0.0,
        -1.0,
        -1.0
      ],
      "type": "VEC3"
    },
    {
      "bufferView": 3,
      "byteOffset": 1440688,
      "componentType": 5126,
      "count": 1080,
      "max": [
        1.0,
        0.9978655576705933,
        0.9978650808334351,
        1.0
      ],
      "min": [
        -1.0,
        -0.9978655576705933,
        -1.0,
        -1.0
      ],
      "type": "VEC4"
    },
    {
      "bufferView": 1,
      "byteOffset": 720344,
      "componentType": 5126,
      "count": 1080,
      "max": [
        0.792389988899231,
        0.7310630083084106
      ],
      "min": [
        0.628695011138916,
        0.545307993888855
      ],
      "type": "VEC2"
    },
    {
      "bufferView": 0,
      "byteOffset": 904500,
      "componentType": 5125,
      "count": 3060,
      "type": "SCALAR"
    },
    {
      "bufferView": 2,
      "byteOffset": 2186952,
      "componentType": 5126,
      "count": 65064,
      "max": [
        -1.7241029739379883,
        3.4004979133605957,
        -0.4345729947090149
      ],
      "min": [
        -3.727449893951416,
        -3.4004979133605957,
        -1.9101040363311768
      ],
      "type": "VEC3"
    },
    {
      "bufferView": 2,
      "byteOffset": 2967720,
      "componentType": 5126,
      "count": 65064,
      "max": [
        1.0,
        1.0,
        1.0
      ],
      "min": [
        -1.0,
        -1.0,
        -1.0
      ],
      "type": "VEC3"
    },
    {
      "bufferView": 3,
      "byteOffset": 1457968,
      "componentType": 5126,
      "count": 65064,
      "max": [
        1.0,
        1.0,
        1.0,
        1.0
      ],
      "min": [
        -1.0,
        -1.0,
        -1.0,
        -1.0
      ],
      "type": "VEC4"
    },
    {
      "bufferView": 1,
      "byteOffset": 728984,
      "componentType": 5126,
      "count": 65064,
      "max": [
        0.9947699904441833,
        0.998337984085083
      ],
      "min": [
        0.4009990096092224,
        0.009475000202655792
      ],
      "type": "VEC2"
    },
    {
      "bufferView": 0,
      "byteOffset": 916740,
      "componentType": 5125,
      "count": 164784,
      "type": "SCALAR"
    },
    {
      "bufferView": 2,
      "byteOffset": 3748488,
      "componentType": 5126,
      "count": 65532,
      "max": [
        7.645301818847656,
        3.0744659900665283,
        4.648147106170654
      ],
      "min": [
        -3.6495559215545654,
        -2.5758450031280518,
        -2.012842893600464
      ],
      "type": "VEC3"
    },
    {
      "bufferView": 2,
      "byteOffset": 4534872,
      "componentType": 5126,
      "count": 65532,
      "max": [
        1.0,
        1.0,
        1.0
      ],
      "min": [
        -1.0,
        -1.0,
        -1.0
      ],
      "type": "VEC3"
    },
    {
      "bufferView": 3,
      "byteOffset": 2498992,
      "componentType": 5126,
      "count": 65532,
      "max": [
        1.0,
        1.0,
        1.0,
        1.0
      ],
      "min": [
        -1.0,
        -1.0,
        -1.0,
        -1.0
      ],
      "type": "VEC4"
    },
    {
      "bufferView": 1,
      "byteOffset": 1249496,
      "componentType": 5126,
      "count": 65532,
      "max": [
        0.9986540079116821,
        0.9977120161056519
      ],
      "min": [
        0.006130999885499477,
        0.002896999940276146
      ],
      "type": "VEC2"
    },
    {
      "bufferView": 0,
      "byteOffset": 1575876,
      "componentType": 5125,
      "count": 257787,
      "type": "SCALAR"
    },
    {
      "bufferView": 2,
      "byteOffset": 5321256,
      "componentType": 5126,
      "count": 65532,
      "max": [
        7.645301818847656,
        2.0410990715026855,
        4.648147106170654
      ],
      "min": [
        -4.8899359703063965,
        -3.0744659900665283,
        -2.012842893600464
      ],
      "type": "VEC3"
    },
    {
      "bufferView": 2,
      "byteOffset": 6107640,
      "componentType": 5126,
      "count": 65532,
      "max": [
        1.0,
        1.0,
        1.0
      ],
      "min": [
        -1.0,
        -1.0,
        -1.0
      ],
      "type": "VEC3"
    },
    {
      "bufferView": 3,
      "byteOffset": 3547504,
      "componentType": 5126,
      "count": 65532,
      "max": [
        1.0,
        1.0,
        1.0,
        1.0
      ],
      "min": [
        -1.0,
        -1.0,
        -1.0,
        -1.0
      ],
      "type": "VEC4"
    },
    {
      "bufferView": 1,
      "byteOffset": 1773752,
      "componentType": 5126,
      "count": 65532,
      "max": [
        0.9986540079116821,
        0.9986209869384766
      ],
      "min": [
        0.0027020000852644444,
        0.002896999940276146
      ],
      "type": "VEC2"
    },
    {
      "bufferView": 0,
      "byteOffset": 2607024,
      "componentType": 5125,
      "count": 259986,
      "type": "SCALAR"
    },
    {
      "bufferView": 2,
      "byteOffset": 6894024,
      "componentType": 5126,
      "count": 14161,
      "max": [
        1.719751000404358,
        2.115863084793091,
        2.8447399139404297
      ],
      "min": [
        -4.8899359703063965,
        0.0,
        -1.993541955947876
      ],
      "type": "VEC3"
    },
    {
      "bufferView": 2,
      "byteOffset": 7063956,
      "componentType": 5126,
      "count": 14161,
      "max": [
        1.0,
        1.0,
        1.0
      ],
      "min": [
        -1.0,
        -1.0,
        -1.0
      ],
      "type": "VEC3"
    },
    {
      "bufferView": 3,
      "byteOffset": 4596016,
      "componentType": 5126,
      "count": 14161,
      "max": [
        1.0,
        1.0,
        1.0,
        1.0
      ],
      "min": [
        -1.0,
        -1.0,
        -1.0,
        -1.0
      ],
      "type": "VEC4"
    },
    {
      "bufferView": 1,
      "byteOffset": 2298008,
      "componentType": 5126,
      "count": 14161,
      "max": [
        0.9922000169754028,
        0.9986209869384766
      ],
      "min": [
        0.2504020035266876,
        0.31837499141693115
      ],
      "type": "VEC2"
    },
    {
      "bufferView": 0,
      "byteOffset": 3646968,
      "componentType": 5125,
      "count": 70476,
      "type": "SCALAR"
    }
  ],
  "asset": {
    "extras": {
      "author": "Lezalit (https://sketchfab.com/Lezalit)",
      "license": "CC-BY-4.0 (http://creativecommons.org/licenses/by/4.0/)",
      "source": "https://sketchfab.com/3d-models/mars-rover-2-51650fa1c23c48818a05aa1ece9f712e",
      "title": "Mars Rover 2"
    },
    "generator": "Sketchfab-15.19.0",
    "version": "2.0"
  },
  "bufferViews": [
    {
      "buffer": 0,
      "byteLength": 3928872,
      "name": "floatBufferViews",
      "target": 34963
    },
    {
      "buffer": 0,
      "byteLength": 2411296,
      "byteOffset": 3928872,
      "byteStride": 8,
      "name": "floatBufferViews",
      "target": 34962
    },
    {
      "buffer": 0,
      "byteLength": 7233888,
      "byteOffset": 6340168,
      "byteStride": 12,
      "name": "floatBufferViews",
      "target": 34962
    },
    {
      "buffer": 0,
      "byteLength": 4822592,
      "byteOffset": 13574056,
      "byteStride": 16,
      "name": "floatBufferViews",
      "target": 34962
    }
  ],
  "buffers": [
    {
      "byteLength": 18396648,
      "uri": "scene.bin"
    }
  ],
  "extensionsUsed": [
    "KHR_materials_emissive_strength"
  ],
  "images": [
    {
      "uri": "textures/BASE_baseColor.jpeg"
    },
    {
      "uri": "textures/BASE_metallicRoughness.png"
    },
    {
      "uri": "textures/BASE_emissive.jpeg"
    },
    {
      "uri": "textures/BASE_normal.png"
    },
    {
      "uri": "textures/LEGS_baseColor.jpeg"
    },
    {
      "uri": "textures/LEGS_metallicRoughness.png"
    },
    {
      "uri": "textures/LEGS_emissive.jpeg"
    },
    {
      "uri": "textures/LEGS_normal.png"
    }
  ],
  "materials": [
    {
      "doubleSided": true,
      "emissiveFactor": [
        1.0,
        1.0,
        1.0
      ],
      "emissiveTexture": {
        "index": 2
      },
      "extensions": {
        "KHR_materials_emissive_strength": {
          "emissiveStrength": 2.2400068266874715
        }
      },
      "name": "BASE",
      "normalTexture": {
        "index": 3
      },
      "occlusionTexture": {
        "index": 1
      },
      "pbrMetallicRoughness": {
        "baseColorTexture": {
          "index": 0
        },
        "metallicRoughnessTexture": {
          "index": 1
        }
      }
    },
    {
      "doubleSided": true,
      "emissiveFactor": [
        1.0,
        1.0,
        1.0
      ],
      "emissiveTexture": {
        "index": 6
      },
      "name": "LEGS",
      "normalTexture": {
        "index": 7
      },
      "occlusionTexture": {
        "index": 5
      },
      "pbrMetallicRoughness": {
        "baseColorTexture": {
          "index": 4
        },
        "metallicRoughnessTexture": {
          "index": 5
        }
      }
    }
  ],
  "meshes": [
    {
      "name": "defaultMaterial",
      "primitives": [
        {
          "attributes": {
            "NORMAL": 1,
            "POSITION": 0,
            "TANGENT": 2,
            "TEXCOORD_0": 3
          },
          "indices": 4,
          "material": 1,
          "mode": 4
        }
      ]
    },
    {
      "name": "defaultMaterial",
      "primitives": [
        {
          "attributes": {
            "NORMAL": 6,
            "POSITION": 5,
            "TANGENT": 7,
            "TEXCOORD_0": 8
          },
          "indices": 9,
          "material": 1,
          "mode": 4
        }
      ]
    },
    {
      "name": "defaultMaterial",
      "primitives": [
        {
          "attributes": {
            "NORMAL": 11,
            "POSITION": 10,
            "TANGENT": 12,
            "TEXCOORD_0": 13
          },
          "indices": 14,
          "material": 1,
          "mode": 4
        }
      ]
    },
    {
      "name": "defaultMaterial",
      "primitives": [
        {
          "attributes": {
            "NORMAL": 16,
            "POSITION": 15,
            "TANGENT": 17,
            "TEXCOORD_0": 18
          },
          "indices": 19,
          "material": 1,
          "mode": 4
        }
      ]
    },
    {
      "name": "defaultMaterial",
      "primitives": [
        {
          "attributes": {
            "NORMAL": 21,
            "POSITION": 20,
            "TANGENT": 22,
            "TEXCOORD_0": 23
          },
          "indices": 24,
          "material": 1,
          "mode": 4
        }
      ]
    },
    {
      "name": "defaultMaterial",
      "primitives": [
        {
          "attributes": {
            "NORMAL": 26,
            "POSITION": 25,
            "TANGENT": 27,
            "TEXCOORD_0": 28
          },
          "indices": 29,
          "material": 0,
          "mode": 4
        }
      ]
    },
    {
      "name": "defaultMaterial",
      "primitives": [
        {
          "attributes": {
            "NORMAL": 31,
            "POSITION": 30,
            "TANGENT": 32,
            "TEXCOORD_0": 33
          },
          "indices": 34,
          "material": 0,
          "mode": 4
        }
      ]
    },
    {
      "name": "defaultMaterial",
      "primitives": [
        {
          "attributes": {
            "NORMAL": 36,
            "POSITION": 35,
            "TANGENT": 37,
            "TEXCOORD_0": 38
          },
          "indices": 39,
          "material": 0,
          "mode": 4
        }
      ]
    }
  ],
  "nodes": [
    {
      "children": [
        1
      ],
      "matrix": [
        1.0,
        0.0,
        0.0,
        0.0,
        0.0,
        2.220446049250313e-16,
        -1.0,
        0.0,
        0.0,
        1.0,
        2.220446049250313e-16,
        0.0,
        0.0,
        0.0,
        0.0,
        1.0
      ],
      "name": "Sketchfab_model"
    },
    {
      "children": [
        2,
        4,
        6,
        8,
        10,
        12
      ],
      "matrix": [
        1.0,
        0.0,
        0.0,
        0.0,
        0.0,
        -4.371139006309477e-08,
        0.999999999999999,
        0.0,
        0.0,
        -0.999999999999999,
        -4.371139006309477e-08,
        0.0,
        0.0,
        0.0,
        0.0,
        1.0
      ],
      "name": "Collada visual scene group"
    },
    {
      "children": [
        3
      ],
      "matrix": [
        100.0,
        0.0,
        0.0,
        0.0,
        0.0,
        -1.6e-05,
        -100.0,
        0.0,
        0.0,
        100.0,
        -1.6e-05,
        0.0,
        666.00824,
        162.012299,
        -0.824881,
        1.0
      ],
      "name": "Cylinder.011"
    },
    {
      "mesh": 0,
      "name": "defaultMaterial"
    },
    {
      "children": [
        5
      ],
      "matrix": [
        100.0,
        0.0,
        0.0,
        0.0,
        0.0,
        -1.6e-05,
        -100.0,
        0.0,
        0.0,
        100.0,
        -1.6e-05,
        0.0,
        666.00824,
        162.012299,
        -0.824881,
        1.0
      ],
      "name": "Cylinder.010"
    },
    {
      "mesh": 1,
      "name": "defaultMaterial"
    },
    {
      "children": [
        7
      ],
      "matrix": [
        100.0,
        0.0,
        0.0,
        0.0,
        0.0,
        -1.6e-05,
        -100.0,
        0.0,
        0.0,
        100.0,
        -1.6e-05,
        0.0,
        0.000143,
        162.012299,
        -0.824881,
        1.0
      ],
      "name": "Cylinder.008"
    },
    {
      "mesh": 2,
      "name": "defaultMaterial"
    },
    {
      "children": [
        9
      ],
      "matrix": [
        100.0,
        0.0,
        0.0,
        0.0,
        0.0,
        -1.6e-05,
        -100.0,
        0.0,
        0.0,
        100.0,
        -1.6e-05,
        0.0,
        0.000143,
        162.012299,
        -0.824881,
        1.0
      ],
      "name": "Cylinder.006"
    },
    {
      "mesh": 3,
      "name": "defaultMaterial"
    },
    {
      "children": [
        11
      ],
      "matrix": [
        100.0,
        0.0,
        0.0,
        0.0,
        0.0,
        -1.6e-05,
        -100.0,
        0.0,
        0.0,
        100.0,
        -1.6e-05,
        0.0,
        0.000143,
        162.012299,
        -0.824881,
        1.0
      ],
      "name": "Cylinder.004"
    },
    {
      "mesh": 4,
      "name": "defaultMaterial"
    },
    {
      "children": [
        13,
        14,
        15
      ],
      "matrix": [
        100.0,
        0.0,
        0.0,
        0.0,
        0.0,
        -1.6e-05,
        -100.0,
        0.0,
        0.0,
        100.0,
        -1.6e-05,
        0.0,
        0.000143,
        162.012299,
        -0.824881,
        1.0
      ],
      "name": "Cube.001"
    },
    {
      "mesh": 5,
      "name": "defaultMaterial"
    },
    {
      "mesh": 6,
      "name": "defaultMaterial"
    },
    {
      "mesh": 7,
      "name": "defaultMaterial"
    }
  ],
  "samplers": [
    {
      "magFilter": 9729,
      "minFilter": 9987,
      "wrapS": 10497,
      "wrapT": 10497
    }
  ],
  "scene": 0,
  "scenes": [
    {
      "name": "Sketchfab_Scene",
      "nodes": [
        0
      ]
    }
  ],
  "textures": [
    {
      "sampler": 0,
      "source": 0
    },
    {
      "sampler": 0,
      "source": 1
    },
    {
      "sampler": 0,
      "source": 2
    },
    {
      "sampler": 0,
      "source": 3
    },
    {
      "sampler": 0,
      "source": 4
    },
    {
      "sampler": 0,
      "source": 5
    },
    {
      "sampler": 0,
      "source": 6
    },
    {
      "sampler": 0,
      "source": 7
    }
  ]
}
