{
  "accessors": [
    {
      "bufferView": 2,
      "componentType": 5126,
      "count": 26805,
      "max": [
        4.9868378639221191,
        9.7587375640869141,
        0.046897001564502716
      ],
      "min": [
        -4.6221718788146973,
        -11.359842300415039,
        -6.0443949699401855
      ],
      "type": "VEC3"
    },
    {
      "bufferView": 2,
      "byteOffset": 321660,
      "componentType": 5126,
      "count": 26805,
      "max": [
        0.99997794628143311,
        0.9998934268951416,
        0.99996435642242432
      ],
      "min": [
        -0.99992585182189941,
        -0.99986428022384644,
        -0.99999547004699707
      ],
      "type": "VEC3"
    },
    {
      "bufferView": 3,
      "componentType": 5126,
      "count": 26805,
      "max": [
        0.99990248680114746,
        0.99989897012710571,
        0.99985754489898682,
        1
      ],
      "min": [
        -0.99995297193527222,
        -0.9997330904006958,
        -0.99997049570083618,
        -1
      ],
      "type": "VEC4"
    },
    {
      "bufferView": 1,
      "componentType": 5126,
      "count": 26805,
      "max": [
        0.99991601705551147,
        0.98868101835250854
      ],
      "min": [
        8.0999998317565769e-05,
        3.1999999919207767e-05
      ],
      "type": "VEC2"
    },
    {
      "bufferView": 0,
      "componentType": 5125,
      "count": 149988,
      "max": [
        26804
      ],
      "min": [
        0
      ],
      "type": "SCALAR"
    },
    {
      "bufferView": 2,
      "byteOffset": 643320,
      "componentType": 5126,
      "count": 55444,
      "max": [
        5.3305478096008301,
        9.1028013229370117,
        7.7891750335693359
      ],
      "min": [
        -4.1543002128601074,
        -11.967190742492676,
        -1.5435930490493774
      ],
      "type": "VEC3"
    },
    {
      "bufferView": 2,
      "byteOffset": 1308648,
      "componentType": 5126,
      "count": 55444,
      "max": [
        0.99999964237213135,
        0.99999570846557617,
        0.99995076656341553
      ],
      "min": [
        -0.99998891353607178,
        -0.99988245964050293,
        -0.99995613098144531
      ],
      "type": "VEC3"
    },
    {
      "bufferView": 3,
      "byteOffset": 428880,
      "componentType": 5126,
      "count": 55444,
      "max": [
        0.99999964237213135,
        0.99991244077682495,
        0.99999743700027466,
        1
      ],
      "min": [
        -0.99998128414154053,
        -0.99999350309371948,
        -0.99996858835220337,
        -1
      ],
      "type": "VEC4"
    },
    {
      "bufferView": 1,
      "byteOffset": 214440,
      "componentType": 5126,
      "count": 55444,
      "max": [
        0.99939501285552979,
        0.9921640157699585
      ],
      "min": [
        0,
        0
      ],
      "type": "VEC2"
    },
    {
      "bufferView": 0,
      "byteOffset": 599952,
      "componentType": 5125,
      "count": 301254,
      "max": [
        55443
      ],
      "min": [
        0
      ],
      "type": "SCALAR"
    }
  ],
  "asset": {
    "extras": {
      "author": "rankinstudio (https://sketchfab.com/rankinstudio)",
      "license": "CC-BY-4.0 (http://creativecommons.org/licenses/by/4.0/)",
      "source": "https://sketchfab.com/models/2d7c4e880c2e45289ebbade3ec479979",
      "title": "Juvenile Teratophoneus curriei"
    },
    "generator": "Sketchfab-4.4.0",
    "version": "2.0"
  },
  "bufferViews": [
    {
      "buffer": 0,
      "byteLength": 1804968,
      "byteOffset": 0,
      "name": "floatBufferViews",
      "target": 34963
    },
    {
      "buffer": 0,
      "byteLength": 657992,
      "byteOffset": 1804968,
      "byteStride": 8,
      "name": "floatBufferViews",
      "target": 34962
    },
    {
      "buffer": 0,
      "byteLength": 1973976,
      "byteOffset": 2462960,
      "byteStride": 12,
      "name": "floatBufferViews",
      "target": 34962
    },
    {
      "buffer": 0,
      "byteLength": 1315984,
      "byteOffset": 4436936,
      "byteStride": 16,
      "name": "floatBufferViews",
      "target": 34962
    }
  ],
  "buffers": [
    {
      "byteLength": 5752920,
      "uri": "scene.bin"
    }
  ],
  "extensionsUsed": [
    "KHR_materials_unlit"
  ],
  "images": [
    {
      "uri": "textures/material_baseColor.jpeg"
    },
    {
      "uri": "textures/Skull_baseColor.jpeg"
    }
  ],
  "materials": [
    {
      "doubleSided": true,
      "emissiveFactor": [
        0,
        0,
        0
      ],
      "extensions": {
        "KHR_materials_unlit": {}
      },
      "name": "material",
      "pbrMetallicRoughness": {
        "baseColorFactor": [
          1,
          1,
          1,
          1
        ],
        "baseColorTexture": {
          "index": 0,
          "texCoord": 0
        },
        "metallicFactor": 0,
        "roughnessFactor": 1
      }
    },
    {
      "doubleSided": true,
      "emissiveFactor": [
        0,
        0,
        0
      ],
      "extensions": {
        "KHR_materials_unlit": {}
      },
      "name": "Skull",
      "pbrMetallicRoughness": {
        "baseColorFactor": [
          1,
          1,
          1,
          1
        ],
        "baseColorTexture": {
          "index": 1,
          "texCoord": 0
        },
        "metallicFactor": 0,
        "roughnessFactor": 1
      }
    }
  ],
  "meshes": [
    {
      "primitives": [
        {
          "attributes": {
            "NORMAL": 1,
            "POSITION": 0,
            "TANGENT": 2,
            "TEXCOORD_0": 3
          },
          "indices": 4,
          "material": 0,
          "mode": 4
        }
      ]
    },
    {
      "primitives": [
        {
          "attributes": {
            "NORMAL": 6,
            "POSITION": 5,
            "TANGENT": 7,
            "TEXCOORD_0": 8
          },
          "indices": 9,
          "material": 1,
          "mode": 4
        }
      ]
    }
  ],
  "nodes": [
    {
      "children": [
        1
      ],
      "name": "RootNode (gltf orientation matrix)",
      "rotation": [
        -0.70710678118654746,
        -0,
        -0,
        0.70710678118654757
      ]
    },
    {
      "children": [
        2
      ],
      "matrix": [
        0.0043224641121923923,
        0.99999064207077026,
        0,
        0,
        -0.99999064207077026,
        0.0043224641121923923,
        0,
        0,
        0,
        0,
        1,
        0,
        -0.7515418529510498,
        -1.4536089897155762,
        0,
        1
      ],
      "name": "RootNode (model correction matrix)"
    },
    {
      "children": [
        3,
        4
      ],
      "name": "TERAT.obj.cleaner.materialmerger.gles"
    },
    {
      "mesh": 0,
      "name": ""
    },
    {
      "mesh": 1,
      "name": ""
    }
  ],
  "samplers": [
    {
      "magFilter": 9729,
      "minFilter": 9987,
      "wrapS": 10497,
      "wrapT": 10497
    }
  ],
  "scene": 0,
  "scenes": [
    {
      "name": "OSG_Scene",
      "nodes": [
        0
      ]
    }
  ],
  "textures": [
    {
      "sampler": 0,
      "source": 0
    },
    {
      "sampler": 0,
      "source": 1
    }
  ]
}

